<svg width="85" height="22" viewBox="0 0 85 22" fill="none" xmlns="http://www.w3.org/2000/svg">
<path d="M18.3333 11H3.66667L1.83333 20.1667H20.1667L18.3333 11ZM16.83 12.8333L17.1967 14.6667H11.9167V12.8333H16.83ZM10.0833 12.8333V14.6667H4.80333L5.17 12.8333H10.0833ZM4.43667 16.5H10.0833V18.3333H4.07L4.43667 16.5ZM11.9167 18.3333V16.5H17.5633L17.93 18.3333H11.9167Z" fill="#B91C1C"/>
<path d="M11.9167 7.33333H10.0833V10.0833H11.9167V7.33333Z" fill="#B91C1C"/>
<path d="M15.7471 5.30838L14.4508 6.60473L16.3953 8.54926L17.6917 7.25291L15.7471 5.30838Z" fill="#B91C1C"/>
<path d="M6.25732 5.30887L4.31279 7.25339L5.60914 8.54974L7.55367 6.60522L6.25732 5.30887Z" fill="#B91C1C"/>
<path d="M5.5 1.83333H2.75V3.66667H5.5V1.83333Z" fill="#B91C1C"/>
<path d="M19.25 1.83333H16.5V3.66667H19.25V1.83333Z" fill="#B91C1C"/>
<path d="M11 6.41667C13.53 6.41667 15.5833 4.36333 15.5833 1.83333H13.75C13.75 3.34583 12.5125 4.58333 11 4.58333C9.4875 4.58333 8.25 3.34583 8.25 1.83333H6.41667C6.41667 4.36333 8.47 6.41667 11 6.41667Z" fill="#B91C1C"/>
<path d="M26.6591 3.45455L29.3153 8.04972H29.429L32.1136 3.45455H36.0483L31.6591 10.7273L36.1903 18H32.1562L29.429 13.3551H29.3153L26.5881 18H22.5824L27.0923 10.7273L22.696 3.45455H26.6591Z" fill="#111827"/>
<path d="M46.4815 7.09091C46.3963 6.37121 46.0507 5.8125 45.4446 5.41477C44.8385 5.01705 44.0952 4.81818 43.2145 4.81818C42.5705 4.81818 42.0071 4.92235 41.5241 5.13068C41.0459 5.33901 40.6719 5.62547 40.402 5.99006C40.1368 6.35464 40.0043 6.76894 40.0043 7.23295C40.0043 7.62121 40.0966 7.95502 40.2812 8.23438C40.4706 8.509 40.7121 8.73864 41.0057 8.9233C41.2992 9.10322 41.607 9.25237 41.929 9.37074C42.2509 9.48437 42.5469 9.5767 42.8168 9.64773L44.294 10.0455C44.6728 10.1449 45.0942 10.2822 45.5582 10.4574C46.027 10.6326 46.4744 10.8717 46.9006 11.1747C47.3314 11.473 47.6866 11.8565 47.9659 12.3253C48.2453 12.794 48.3849 13.3693 48.3849 14.0511C48.3849 14.8371 48.179 15.5473 47.767 16.1818C47.3599 16.8163 46.7633 17.3205 45.9773 17.6946C45.196 18.0687 44.2467 18.2557 43.1293 18.2557C42.0876 18.2557 41.1856 18.0876 40.4233 17.7514C39.6657 17.4152 39.0691 16.9465 38.6335 16.3452C38.2027 15.7438 37.9588 15.0455 37.902 14.25H39.7202C39.7675 14.7992 39.9522 15.2538 40.2741 15.6136C40.6009 15.9687 41.0128 16.2339 41.5099 16.4091C42.0118 16.5795 42.5516 16.6648 43.1293 16.6648C43.8016 16.6648 44.4053 16.5559 44.9403 16.3381C45.4754 16.1155 45.8991 15.8078 46.2116 15.4148C46.5241 15.017 46.6804 14.553 46.6804 14.0227C46.6804 13.5398 46.5455 13.1468 46.2756 12.8438C46.0057 12.5407 45.6506 12.2945 45.2102 12.1051C44.7699 11.9157 44.294 11.75 43.7827 11.608L41.9929 11.0966C40.8565 10.7699 39.9569 10.3035 39.294 9.69744C38.6312 9.09138 38.2997 8.29829 38.2997 7.31818C38.2997 6.50379 38.5199 5.79356 38.9602 5.1875C39.4053 4.5767 40.0019 4.10322 40.75 3.76705C41.5028 3.42614 42.3433 3.25568 43.2713 3.25568C44.2088 3.25568 45.0421 3.42377 45.7713 3.75994C46.5005 4.09138 47.0781 4.54593 47.5043 5.12358C47.9351 5.70123 48.1624 6.35701 48.1861 7.09091H46.4815Z" fill="#111827"/>
<path d="M55.4854 18.2273C54.5006 18.2273 53.6365 17.9929 52.8931 17.5241C52.1545 17.0554 51.5768 16.3996 51.1602 15.5568C50.7482 14.714 50.5423 13.7292 50.5423 12.6023C50.5423 11.4659 50.7482 10.474 51.1602 9.62642C51.5768 8.77888 52.1545 8.12074 52.8931 7.65199C53.6365 7.18324 54.5006 6.94886 55.4854 6.94886C56.4703 6.94886 57.332 7.18324 58.0707 7.65199C58.814 8.12074 59.3917 8.77888 59.8036 9.62642C60.2203 10.474 60.4286 11.4659 60.4286 12.6023C60.4286 13.7292 60.2203 14.714 59.8036 15.5568C59.3917 16.3996 58.814 17.0554 58.0707 17.5241C57.332 17.9929 56.4703 18.2273 55.4854 18.2273ZM55.4854 16.7216C56.2335 16.7216 56.8491 16.5298 57.332 16.1463C57.815 15.7628 58.1725 15.2585 58.4045 14.6335C58.6365 14.0085 58.7525 13.3314 58.7525 12.6023C58.7525 11.8731 58.6365 11.1937 58.4045 10.5639C58.1725 9.93419 57.815 9.42519 57.332 9.03693C56.8491 8.64867 56.2335 8.45455 55.4854 8.45455C54.7373 8.45455 54.1218 8.64867 53.6389 9.03693C53.1559 9.42519 52.7984 9.93419 52.5664 10.5639C52.3344 11.1937 52.2184 11.8731 52.2184 12.6023C52.2184 13.3314 52.3344 14.0085 52.5664 14.6335C52.7984 15.2585 53.1559 15.7628 53.6389 16.1463C54.1218 16.5298 54.7373 16.7216 55.4854 16.7216Z" fill="#111827"/>
<path d="M64.6634 3.45455V18H62.9872V3.45455H64.6634Z" fill="#111827"/>
<path d="M70.9435 18.2557C70.2522 18.2557 69.6249 18.1255 69.0614 17.8651C68.498 17.5999 68.0505 17.2187 67.7191 16.7216C67.3877 16.2197 67.2219 15.6136 67.2219 14.9034C67.2219 14.2784 67.3451 13.7718 67.5913 13.3835C67.8375 12.9905 68.1666 12.6828 68.5785 12.4602C68.9904 12.2377 69.445 12.072 69.9421 11.9631C70.444 11.8494 70.9483 11.7595 71.4549 11.6932C72.1178 11.608 72.6552 11.544 73.0671 11.5014C73.4838 11.4541 73.7868 11.3759 73.9762 11.267C74.1703 11.1581 74.2674 10.9687 74.2674 10.6989V10.642C74.2674 9.94129 74.0756 9.39678 73.6921 9.00852C73.3133 8.62026 72.738 8.42614 71.9663 8.42614C71.1661 8.42614 70.5387 8.60133 70.0842 8.9517C69.6296 9.30208 69.31 9.67614 69.1254 10.0739L67.5344 9.50568C67.8185 8.8428 68.1973 8.3267 68.6708 7.95739C69.149 7.58333 69.6699 7.32292 70.2333 7.17614C70.8015 7.02462 71.3602 6.94886 71.9094 6.94886C72.2598 6.94886 72.6623 6.99148 73.1168 7.0767C73.5761 7.1572 74.0188 7.32528 74.445 7.58097C74.8758 7.83665 75.2333 8.22254 75.5174 8.73864C75.8015 9.25473 75.9435 9.94602 75.9435 10.8125V18H74.2674V16.5227H74.1822C74.0685 16.7595 73.8791 17.0128 73.614 17.2827C73.3488 17.5526 72.9961 17.7822 72.5558 17.9716C72.1154 18.161 71.578 18.2557 70.9435 18.2557ZM71.1992 16.75C71.8621 16.75 72.4208 16.6198 72.8754 16.3594C73.3346 16.099 73.6803 15.7628 73.9123 15.3509C74.149 14.9389 74.2674 14.5057 74.2674 14.0511V12.517C74.1964 12.6023 74.0401 12.6804 73.7987 12.7514C73.5619 12.8177 73.2873 12.8769 72.9748 12.929C72.667 12.9763 72.3664 13.0189 72.0728 13.0568C71.784 13.09 71.5496 13.1184 71.3697 13.142C70.9341 13.1989 70.5269 13.2912 70.1481 13.419C69.774 13.5421 69.471 13.7292 69.239 13.9801C69.0117 14.2263 68.8981 14.5625 68.8981 14.9886C68.8981 15.571 69.1135 16.0114 69.5444 16.3097C69.98 16.6032 70.5316 16.75 71.1992 16.75Z" fill="#111827"/>
<path d="M79.0028 18V7.09091H80.6222V8.73864H80.7358C80.9347 8.19886 81.2945 7.76089 81.8153 7.42472C82.3362 7.08854 82.9233 6.92045 83.5767 6.92045C83.6998 6.92045 83.8537 6.92282 84.0384 6.92756C84.223 6.93229 84.3627 6.93939 84.4574 6.94886V8.65341C84.4006 8.6392 84.2704 8.6179 84.0668 8.58949C83.8679 8.55634 83.6572 8.53977 83.4347 8.53977C82.9044 8.53977 82.4309 8.65104 82.0142 8.87358C81.6023 9.09138 81.2756 9.39441 81.0341 9.78267C80.7973 10.1662 80.679 10.6042 80.679 11.0966V18H79.0028Z" fill="#111827"/>
</svg>
